<svg width="14" height="16" viewBox="0 0 14 16" fill="none" xmlns="http://www.w3.org/2000/svg">
<path fill-rule="evenodd" clip-rule="evenodd" d="M9.2397 12.1542C8.38929 12.6164 7.41464 12.8789 6.37867 12.8789C3.06496 12.8789 0.378668 10.1926 0.378666 6.87894C0.378664 3.56523 3.06495 0.878938 6.37866 0.878941C9.69237 0.878943 12.3787 3.56524 12.3787 6.87894C12.3787 8.43042 11.7898 9.84436 10.8234 10.9095L13.6213 13.7074L12.2071 15.1216L9.2397 12.1542ZM10.3787 6.87894C10.3787 9.08808 8.58781 10.8789 6.37867 10.8789C4.16953 10.8789 2.37867 9.08808 2.37867 6.87894C2.37866 4.6698 4.16952 2.87894 6.37866 2.87894C8.5878 2.87894 10.3787 4.6698 10.3787 6.87894Z" fill="black"/>
</svg>
